<!--?xml version="1.0" standalone="no"?-->
              <svg id="sw-js-blob-svg" viewBox="0 0 100 100" xmlns="http://www.w3.org/2000/svg" version="1.1">
                    <defs> 
                        <linearGradient id="sw-gradient" x1="0" x2="1" y1="1" y2="0">
                            <stop id="stop1" stop-color="rgba(248, 117, 55, 1)" offset="0%"></stop>
                            <stop id="stop2" stop-color="rgba(251, 168, 31, 1)" offset="100%"></stop>
                        </linearGradient>
                    </defs>
                <path fill="url(#sw-gradient)" d="M26.9,-31.7C32.8,-27.2,33.9,-16.7,34.5,-7.1C35,2.6,34.9,11.3,31.4,18.7C27.8,26.1,20.9,32.1,13,34.4C5.1,36.8,-3.6,35.4,-10.7,31.8C-17.7,28.2,-23.1,22.3,-27.5,15.5C-32,8.6,-35.6,0.9,-34.3,-5.9C-32.9,-12.7,-26.6,-18.4,-20,-22.7C-13.5,-27.1,-6.7,-30.1,1.9,-32.4C10.5,-34.6,21.1,-36.2,26.9,-31.7Z" width="100%" height="100%" transform="translate(50 50)" stroke-width="0" style="transition: all 0.3s ease 0s;"></path>
              </svg>